<mxfile host="app.diagrams.net" agent="Mozilla/5.0 (X11; Linux x86_64) AppleWebKit/537.36 (KHTML, like Gecko) Chrome/131.0.0.0 Safari/537.36" version="24.9.2">
  <diagram id="C5RBs43oDa-KdzZeNtuy" name="Page-1">
    <mxGraphModel dx="2074" dy="1095" grid="1" gridSize="10" guides="1" tooltips="1" connect="1" arrows="1" fold="1" page="1" pageScale="1" pageWidth="827" pageHeight="1169" math="0" shadow="0">
      <root>
        <mxCell id="WIyWlLk6GJQsqaUBKTNV-0" />
        <mxCell id="WIyWlLk6GJQsqaUBKTNV-1" parent="WIyWlLk6GJQsqaUBKTNV-0" />
        <mxCell id="X30akBvRf-ldmYgeMi9u-0" value="&lt;font style=&quot;font-size: 18px;&quot;&gt;&lt;b&gt;Server&lt;/b&gt;&lt;/font&gt;&lt;div&gt;&lt;font style=&quot;font-size: 18px;&quot;&gt;&lt;b&gt;Script&lt;/b&gt;&lt;/font&gt;&lt;/div&gt;" style="whiteSpace=wrap;html=1;" vertex="1" parent="WIyWlLk6GJQsqaUBKTNV-1">
          <mxGeometry x="340" y="260" width="120" height="60" as="geometry" />
        </mxCell>
        <mxCell id="X30akBvRf-ldmYgeMi9u-3" value="" style="whiteSpace=wrap;html=1;aspect=fixed;" vertex="1" parent="WIyWlLk6GJQsqaUBKTNV-1">
          <mxGeometry x="155" y="400" width="490" height="490" as="geometry" />
        </mxCell>
        <mxCell id="X30akBvRf-ldmYgeMi9u-13" style="edgeStyle=orthogonalEdgeStyle;rounded=0;orthogonalLoop=1;jettySize=auto;html=1;exitX=0;exitY=0.5;exitDx=0;exitDy=0;entryX=0.5;entryY=0;entryDx=0;entryDy=0;" edge="1" parent="WIyWlLk6GJQsqaUBKTNV-1" source="X30akBvRf-ldmYgeMi9u-4" target="X30akBvRf-ldmYgeMi9u-6">
          <mxGeometry relative="1" as="geometry" />
        </mxCell>
        <mxCell id="X30akBvRf-ldmYgeMi9u-4" value="&lt;font size=&quot;3&quot;&gt;Main Loop&lt;/font&gt;&lt;div&gt;&lt;font size=&quot;3&quot;&gt;Blocked&lt;/font&gt;&lt;/div&gt;" style="ellipse;whiteSpace=wrap;html=1;aspect=fixed;" vertex="1" parent="WIyWlLk6GJQsqaUBKTNV-1">
          <mxGeometry x="352.5" y="550" width="95" height="95" as="geometry" />
        </mxCell>
        <mxCell id="X30akBvRf-ldmYgeMi9u-14" style="edgeStyle=orthogonalEdgeStyle;rounded=0;orthogonalLoop=1;jettySize=auto;html=1;exitX=0.5;exitY=0;exitDx=0;exitDy=0;entryX=1;entryY=0.5;entryDx=0;entryDy=0;" edge="1" parent="WIyWlLk6GJQsqaUBKTNV-1" source="X30akBvRf-ldmYgeMi9u-5" target="X30akBvRf-ldmYgeMi9u-4">
          <mxGeometry relative="1" as="geometry" />
        </mxCell>
        <mxCell id="X30akBvRf-ldmYgeMi9u-5" value="&lt;font size=&quot;3&quot;&gt;Encoding &amp;amp;&lt;/font&gt;&lt;div&gt;&lt;font size=&quot;3&quot;&gt;Streaming&lt;/font&gt;&lt;/div&gt;&lt;div&gt;&lt;font size=&quot;3&quot;&gt;Frame(s)&lt;/font&gt;&lt;/div&gt;" style="ellipse;whiteSpace=wrap;html=1;aspect=fixed;" vertex="1" parent="WIyWlLk6GJQsqaUBKTNV-1">
          <mxGeometry x="460" y="690" width="100" height="100" as="geometry" />
        </mxCell>
        <mxCell id="X30akBvRf-ldmYgeMi9u-10" style="edgeStyle=orthogonalEdgeStyle;rounded=0;orthogonalLoop=1;jettySize=auto;html=1;exitX=1;exitY=0.5;exitDx=0;exitDy=0;entryX=0;entryY=0.5;entryDx=0;entryDy=0;" edge="1" parent="WIyWlLk6GJQsqaUBKTNV-1" source="X30akBvRf-ldmYgeMi9u-6" target="X30akBvRf-ldmYgeMi9u-5">
          <mxGeometry relative="1" as="geometry" />
        </mxCell>
        <mxCell id="X30akBvRf-ldmYgeMi9u-6" value="&lt;font size=&quot;3&quot;&gt;Capture&lt;/font&gt;&lt;div&gt;&lt;font size=&quot;3&quot;&gt;Request&lt;/font&gt;&lt;/div&gt;&lt;div&gt;&lt;font size=&quot;3&quot;&gt;Queued&lt;/font&gt;&lt;/div&gt;" style="ellipse;whiteSpace=wrap;html=1;aspect=fixed;" vertex="1" parent="WIyWlLk6GJQsqaUBKTNV-1">
          <mxGeometry x="240" y="690" width="100" height="100" as="geometry" />
        </mxCell>
        <mxCell id="X30akBvRf-ldmYgeMi9u-8" value="&lt;font size=&quot;3&quot;&gt;Timer Hits&lt;/font&gt;&lt;div&gt;&lt;font size=&quot;3&quot;&gt;Timestamp&lt;/font&gt;&lt;/div&gt;" style="text;html=1;align=center;verticalAlign=middle;whiteSpace=wrap;rounded=0;" vertex="1" parent="WIyWlLk6GJQsqaUBKTNV-1">
          <mxGeometry x="180" y="630" width="110" height="40" as="geometry" />
        </mxCell>
        <mxCell id="X30akBvRf-ldmYgeMi9u-11" value="&lt;font size=&quot;3&quot;&gt;Camera&lt;/font&gt;&lt;div&gt;&lt;font size=&quot;3&quot;&gt;Completes&lt;br&gt;Request&lt;/font&gt;&lt;/div&gt;" style="text;html=1;align=center;verticalAlign=middle;whiteSpace=wrap;rounded=0;" vertex="1" parent="WIyWlLk6GJQsqaUBKTNV-1">
          <mxGeometry x="355" y="760" width="90" height="60" as="geometry" />
        </mxCell>
        <mxCell id="X30akBvRf-ldmYgeMi9u-15" value="&lt;font size=&quot;3&quot;&gt;Processed&lt;/font&gt;&lt;div&gt;&lt;font size=&quot;3&quot;&gt;Frame(s)&lt;/font&gt;&lt;/div&gt;" style="text;html=1;align=center;verticalAlign=middle;whiteSpace=wrap;rounded=0;" vertex="1" parent="WIyWlLk6GJQsqaUBKTNV-1">
          <mxGeometry x="510" y="630" width="120" height="40" as="geometry" />
        </mxCell>
        <mxCell id="X30akBvRf-ldmYgeMi9u-17" value="&lt;font style=&quot;font-size: 14px;&quot;&gt;&lt;b style=&quot;&quot;&gt;Timestamp&lt;/b&gt;&lt;/font&gt;&lt;div&gt;&lt;font style=&quot;font-size: 14px;&quot;&gt;&lt;b style=&quot;&quot;&gt;Initially = 0&lt;/b&gt;&lt;/font&gt;&lt;/div&gt;" style="text;html=1;align=center;verticalAlign=middle;whiteSpace=wrap;rounded=0;" vertex="1" parent="WIyWlLk6GJQsqaUBKTNV-1">
          <mxGeometry x="345" y="480" width="110" height="70" as="geometry" />
        </mxCell>
        <mxCell id="X30akBvRf-ldmYgeMi9u-18" value="&lt;font style=&quot;font-size: 18px;&quot;&gt;&lt;b&gt;Recording &amp;amp;&lt;/b&gt;&lt;/font&gt;&lt;div&gt;&lt;font style=&quot;font-size: 18px;&quot;&gt;&lt;b&gt;Streaming&lt;br&gt;Process&lt;/b&gt;&lt;/font&gt;&lt;/div&gt;" style="text;html=1;align=center;verticalAlign=middle;whiteSpace=wrap;rounded=0;" vertex="1" parent="WIyWlLk6GJQsqaUBKTNV-1">
          <mxGeometry x="335" y="410" width="130" height="70" as="geometry" />
        </mxCell>
        <mxCell id="X30akBvRf-ldmYgeMi9u-1" style="edgeStyle=orthogonalEdgeStyle;rounded=0;orthogonalLoop=1;jettySize=auto;html=1;exitX=0;exitY=0.5;exitDx=0;exitDy=0;entryX=0;entryY=0.5;entryDx=0;entryDy=0;" edge="1" parent="WIyWlLk6GJQsqaUBKTNV-1" source="X30akBvRf-ldmYgeMi9u-0" target="X30akBvRf-ldmYgeMi9u-17">
          <mxGeometry relative="1" as="geometry">
            <mxPoint x="280" y="400" as="targetPoint" />
          </mxGeometry>
        </mxCell>
        <mxCell id="X30akBvRf-ldmYgeMi9u-2" style="edgeStyle=orthogonalEdgeStyle;rounded=0;orthogonalLoop=1;jettySize=auto;html=1;exitX=1;exitY=0.5;exitDx=0;exitDy=0;entryX=1;entryY=0.5;entryDx=0;entryDy=0;" edge="1" parent="WIyWlLk6GJQsqaUBKTNV-1" source="X30akBvRf-ldmYgeMi9u-0" target="X30akBvRf-ldmYgeMi9u-17">
          <mxGeometry relative="1" as="geometry">
            <mxPoint x="520" y="400" as="targetPoint" />
          </mxGeometry>
        </mxCell>
        <mxCell id="X30akBvRf-ldmYgeMi9u-19" value="&lt;font size=&quot;3&quot;&gt;Send Initial Timestamp&lt;/font&gt;&lt;div&gt;&lt;font size=&quot;3&quot;&gt;-----&lt;/font&gt;&lt;/div&gt;&lt;div&gt;&lt;font size=&quot;3&quot;&gt;Starts Main Loop&lt;/font&gt;&lt;/div&gt;" style="text;html=1;align=center;verticalAlign=middle;whiteSpace=wrap;rounded=0;" vertex="1" parent="WIyWlLk6GJQsqaUBKTNV-1">
          <mxGeometry x="160" y="270" width="160" height="130" as="geometry" />
        </mxCell>
        <mxCell id="X30akBvRf-ldmYgeMi9u-20" value="&lt;font size=&quot;3&quot;&gt;Send &quot;STOP&quot; Message&lt;/font&gt;&lt;div&gt;&lt;font size=&quot;3&quot;&gt;-----&lt;/font&gt;&lt;/div&gt;&lt;div&gt;&lt;font size=&quot;3&quot;&gt;Stops Main Loop&lt;/font&gt;&lt;/div&gt;" style="text;html=1;align=center;verticalAlign=middle;whiteSpace=wrap;rounded=0;" vertex="1" parent="WIyWlLk6GJQsqaUBKTNV-1">
          <mxGeometry x="480" y="270" width="160" height="130" as="geometry" />
        </mxCell>
        <mxCell id="X30akBvRf-ldmYgeMi9u-21" value="&lt;span style=&quot;font-size: 14px;&quot;&gt;Add Frame Duration For&lt;/span&gt;&lt;div&gt;&lt;span style=&quot;font-size: 14px;&quot;&gt;Next Timestamp&lt;/span&gt;&lt;/div&gt;" style="text;html=1;align=center;verticalAlign=middle;whiteSpace=wrap;rounded=0;" vertex="1" parent="WIyWlLk6GJQsqaUBKTNV-1">
          <mxGeometry x="450" y="540" width="120" height="37.5" as="geometry" />
        </mxCell>
        <mxCell id="X30akBvRf-ldmYgeMi9u-24" value="&lt;span style=&quot;font-size: 14px;&quot;&gt;Loop Unblocks&lt;/span&gt;&lt;div&gt;&lt;span style=&quot;font-size: 14px;&quot;&gt;Sets Timer With&lt;/span&gt;&lt;/div&gt;&lt;div&gt;&lt;span style=&quot;font-size: 14px;&quot;&gt;Timestamp&lt;/span&gt;&lt;/div&gt;" style="text;html=1;align=center;verticalAlign=middle;whiteSpace=wrap;rounded=0;" vertex="1" parent="WIyWlLk6GJQsqaUBKTNV-1">
          <mxGeometry x="240" y="523.75" width="110" height="70" as="geometry" />
        </mxCell>
      </root>
    </mxGraphModel>
  </diagram>
</mxfile>
